<svg width="297" height="766" viewBox="0 0 297 766" fill="none" xmlns="http://www.w3.org/2000/svg">
<path d="M297 802L396 673L198 673L297 802Z" fill="#207BB5"/>
<path d="M99.0002 802L198 673L-5.63877e-06 673L99.0002 802Z" fill="#207BB5"/>
<path d="M297 544L396 415L198 415L297 544Z" fill="#207BB5"/>
<path d="M198 415L297 286L99 286L198 415Z" fill="#207BB5"/>
<path d="M99.0002 544L198 673L5.63877e-06 673L99.0002 544Z" fill="#135EA2"/>
<path d="M297 286L396 415L198 415L297 286Z" fill="#135EA2"/>
<path d="M198 415L297 544L99 544L198 415Z" fill="#135EA2"/>
<path d="M297 544L396 673L198 673L297 544Z" fill="#135EA2"/>
<path d="M198 673L297 544L99 544L198 673Z" fill="#207BB5"/>
<path d="M198 673L99 802L297 802L198 673Z" fill="#135EA2"/>
<path d="M297 28L396 157L198 157L297 28Z" fill="#135EA2"/>
<path d="M297 286L396 157L198 157L297 286Z" fill="#207BB5"/>
<path d="M198 157L297 286L99 286L198 157Z" fill="#135EA2"/>
</svg>
