<svg width="402" height="391" viewBox="0 0 402 391" fill="none" xmlns="http://www.w3.org/2000/svg">
<path d="M129 297L258 396L258 198L129 297Z" fill="#207BB5"/>
<path d="M258 198L387 297L387 99L258 198Z" fill="#207BB5"/>
<path d="M258 396L387 495L387 297L258 396Z" fill="#207BB5"/>
<path d="M129 99.0002L3.91724e-05 198L4.57764e-05 0L129 99.0002Z" fill="#135EA2"/>
<path d="M387 297L258 396L258 198L387 297Z" fill="#135EA2"/>
<path d="M258 198L129 297L129 99L258 198Z" fill="#135EA2"/>
<path d="M129 297L3.91724e-05 396L4.57764e-05 198L129 297Z" fill="#135EA2"/>
<path d="M258 396L129 495L129 297L258 396Z" fill="#135EA2"/>
<path d="M-4.32743e-06 198L129 297L129 99L-4.32743e-06 198Z" fill="#207BB5"/>
<path d="M387 297L516 396L516 198L387 297Z" fill="#207BB5"/>
<path d="M516 198L387 297L387 99L516 198Z" fill="#135EA2"/>
<path d="M516 396L387 495L387 297L516 396Z" fill="#135EA2"/>
</svg>
