<svg width="135" height="36" viewBox="0 0 135 36" fill="none" xmlns="http://www.w3.org/2000/svg">
<path d="M-3.95611e-07 8.99999L11.75 -1.04718e-06L11.75 18L-3.95611e-07 8.99999Z" fill="#207BB5"/>
<path d="M-3.95611e-07 27L11.75 18L11.75 36L-3.95611e-07 27Z" fill="#207BB5"/>
<path d="M23.5 27L35.25 18L35.25 36L23.5 27Z" fill="#207BB5"/>
<path d="M35.25 18L47 9L47 27L35.25 18Z" fill="#207BB5"/>
<path d="M23.5 27L11.75 18L11.75 36L23.5 27Z" fill="#135EA2"/>
<path d="M47 27L35.25 18L35.25 36L47 27Z" fill="#135EA2"/>
<path d="M47 8.99999L35.25 -1.04906e-06L35.25 18L47 8.99999Z" fill="#135EA2"/>
<path d="M35.25 18L23.5 9L23.5 27L35.25 18Z" fill="#135EA2"/>
<path d="M11.75 18L23.5 9L23.5 27L11.75 18Z" fill="#207BB5"/>
<path d="M11.75 18L2.54034e-06 27L3.36766e-06 9L11.75 18Z" fill="#135EA2"/>
<path d="M61.5605 15.8082L59 6.15548H60.8692L62.8792 14.3829H62.3927L64.4923 6.15548H66.2974L68.3842 14.3829H67.8977L69.9077 6.15548H71.7769L69.2164 15.8082H67.2192L65.1068 7.80097H65.6701L63.5577 15.8082H61.5605Z" fill="#024088"/>
<path d="M72.5646 15.8082V8.75976H74.2418V15.8082H72.5646ZM72.5646 7.96941V6.15548H74.2418V7.96941H72.5646Z" fill="#024088"/>
<path d="M75.6622 15.8082V8.75976H77.237V10.3275L77.1089 10.0943C77.2711 9.56739 77.5229 9.20029 77.8643 8.99298C78.2142 8.78568 78.6324 8.68202 79.1189 8.68202H79.5286V10.185H78.9269C78.4489 10.185 78.0648 10.3362 77.7747 10.6385C77.4845 10.9322 77.3394 11.3468 77.3394 11.8823V15.8082H75.6622Z" fill="#024088"/>
<path d="M90.3219 15.8082V6.15548H92.063V10.3664H96.1214V6.15548H97.8754V15.8082H96.1214V11.9212H92.063V15.8082H90.3219Z" fill="#024088"/>
<path d="M101.926 15.9637C101.388 15.9637 100.919 15.8427 100.518 15.6009C100.125 15.359 99.8222 15.0221 99.6088 14.5902C99.404 14.1584 99.3015 13.6531 99.3015 13.0743V8.75976H100.979V12.9318C100.979 13.2255 101.034 13.4846 101.145 13.7092C101.265 13.9251 101.431 14.0979 101.644 14.2275C101.866 14.3484 102.114 14.4089 102.387 14.4089C102.66 14.4089 102.903 14.3484 103.117 14.2275C103.33 14.0979 103.496 13.9208 103.616 13.6962C103.735 13.4717 103.795 13.2039 103.795 12.8929V8.75976H105.472V15.8082H103.885V14.4218L104.026 14.668C103.864 15.0999 103.595 15.4238 103.219 15.6397C102.852 15.8557 102.421 15.9637 101.926 15.9637Z" fill="#024088"/>
<path d="M109.553 15.9637C108.811 15.9637 108.162 15.7866 107.607 15.4324C107.061 15.0696 106.686 14.5816 106.481 13.9683L107.735 13.3594C107.915 13.7567 108.162 14.0677 108.478 14.2922C108.802 14.5168 109.161 14.6291 109.553 14.6291C109.861 14.6291 110.104 14.56 110.283 14.4218C110.462 14.2836 110.552 14.1022 110.552 13.8776C110.552 13.7394 110.514 13.6271 110.437 13.5408C110.369 13.4457 110.27 13.368 110.142 13.3075C110.023 13.2384 109.891 13.1823 109.745 13.1391L108.606 12.8152C108.017 12.6424 107.569 12.379 107.262 12.0248C106.963 11.6707 106.814 11.2518 106.814 10.768C106.814 10.3362 106.92 9.96041 107.134 9.64081C107.356 9.31258 107.659 9.05777 108.043 8.87637C108.435 8.69498 108.883 8.60428 109.387 8.60428C110.044 8.60428 110.625 8.76408 111.128 9.08368C111.632 9.40328 111.99 9.85244 112.204 10.4312L110.923 11.0401C110.804 10.7205 110.603 10.4657 110.322 10.2757C110.04 10.0857 109.724 9.99064 109.374 9.99064C109.093 9.99064 108.871 10.0554 108.708 10.185C108.546 10.3146 108.465 10.483 108.465 10.6903C108.465 10.8199 108.499 10.9322 108.568 11.0272C108.636 11.1222 108.73 11.1999 108.849 11.2604C108.977 11.3209 109.122 11.377 109.285 11.4288L110.398 11.7657C110.97 11.9385 111.41 12.1976 111.717 12.5431C112.033 12.8886 112.191 13.3119 112.191 13.8128C112.191 14.2361 112.08 14.6118 111.858 14.9401C111.636 15.2597 111.329 15.5102 110.936 15.6916C110.544 15.873 110.083 15.9637 109.553 15.9637Z" fill="#024088"/>
<path d="M115.464 15.9637C114.978 15.9637 114.555 15.8816 114.197 15.7175C113.838 15.5534 113.561 15.3201 113.364 15.0178C113.168 14.7069 113.07 14.3484 113.07 13.9424C113.07 13.5537 113.155 13.2082 113.326 12.9059C113.497 12.5949 113.761 12.3358 114.12 12.1285C114.478 11.9212 114.931 11.7743 115.477 11.688L117.756 11.3122V12.6079L115.797 12.9448C115.464 13.0052 115.216 13.1132 115.054 13.2687C114.892 13.4242 114.811 13.6271 114.811 13.8776C114.811 14.1195 114.901 14.3138 115.08 14.4607C115.268 14.5989 115.498 14.668 115.771 14.668C116.121 14.668 116.428 14.5946 116.693 14.4477C116.966 14.2922 117.175 14.0806 117.32 13.8128C117.474 13.5451 117.551 13.2514 117.551 12.9318V11.1179C117.551 10.8155 117.431 10.5651 117.192 10.3664C116.962 10.1591 116.655 10.0554 116.271 10.0554C115.912 10.0554 115.592 10.1548 115.31 10.3534C115.037 10.5435 114.837 10.7983 114.709 11.1179L113.339 10.4441C113.475 10.0727 113.689 9.7531 113.979 9.48533C114.278 9.20893 114.628 8.99298 115.029 8.8375C115.43 8.68202 115.865 8.60428 116.335 8.60428C116.906 8.60428 117.41 8.71225 117.845 8.9282C118.281 9.1355 118.618 9.42919 118.857 9.80925C119.104 10.1807 119.228 10.6169 119.228 11.1179V15.8082H117.64V14.6032L117.999 14.5773C117.82 14.8796 117.606 15.1344 117.359 15.3417C117.111 15.5404 116.83 15.6959 116.514 15.8082C116.198 15.9118 115.848 15.9637 115.464 15.9637Z" fill="#024088"/>
<path d="M123.889 15.9637C123.215 15.9637 122.613 15.8039 122.084 15.4843C121.555 15.156 121.136 14.7112 120.829 14.1497C120.522 13.5883 120.368 12.9663 120.368 12.284C120.368 11.5929 120.522 10.971 120.829 10.4182C121.136 9.8654 121.555 9.42487 122.084 9.09664C122.622 8.7684 123.219 8.60428 123.876 8.60428C124.405 8.60428 124.875 8.71225 125.285 8.9282C125.703 9.1355 126.031 9.42919 126.27 9.80925L126.014 10.1591V6H127.691V15.8082H126.104V14.4477L126.283 14.7846C126.044 15.1647 125.711 15.4583 125.285 15.6656C124.858 15.8643 124.393 15.9637 123.889 15.9637ZM124.068 14.4089C124.452 14.4089 124.789 14.3182 125.08 14.1368C125.37 13.9554 125.596 13.7049 125.758 13.3853C125.929 13.0657 126.014 12.6986 126.014 12.284C126.014 11.878 125.929 11.5152 125.758 11.1956C125.596 10.8674 125.37 10.6126 125.08 10.4312C124.789 10.2498 124.452 10.1591 124.068 10.1591C123.693 10.1591 123.356 10.2541 123.057 10.4441C122.758 10.6255 122.523 10.876 122.353 11.1956C122.191 11.5066 122.109 11.8694 122.109 12.284C122.109 12.6986 122.191 13.0657 122.353 13.3853C122.523 13.7049 122.758 13.9554 123.057 14.1368C123.356 14.3182 123.693 14.4089 124.068 14.4089Z" fill="#024088"/>
<path d="M131.236 15.9637C130.75 15.9637 130.327 15.8816 129.969 15.7175C129.61 15.5534 129.333 15.3201 129.136 15.0178C128.94 14.7069 128.842 14.3484 128.842 13.9424C128.842 13.5537 128.927 13.2082 129.098 12.9059C129.269 12.5949 129.533 12.3358 129.892 12.1285C130.25 11.9212 130.703 11.7743 131.249 11.688L133.528 11.3122V12.6079L131.569 12.9448C131.236 13.0052 130.989 13.1132 130.826 13.2687C130.664 13.4242 130.583 13.6271 130.583 13.8776C130.583 14.1195 130.673 14.3138 130.852 14.4607C131.04 14.5989 131.27 14.668 131.543 14.668C131.893 14.668 132.201 14.5946 132.465 14.4477C132.738 14.2922 132.947 14.0806 133.092 13.8128C133.246 13.5451 133.323 13.2514 133.323 12.9318V11.1179C133.323 10.8155 133.203 10.5651 132.964 10.3664C132.734 10.1591 132.427 10.0554 132.043 10.0554C131.684 10.0554 131.364 10.1548 131.082 10.3534C130.809 10.5435 130.609 10.7983 130.481 11.1179L129.111 10.4441C129.247 10.0727 129.461 9.7531 129.751 9.48533C130.05 9.20893 130.4 8.99298 130.801 8.8375C131.202 8.68202 131.637 8.60428 132.107 8.60428C132.678 8.60428 133.182 8.71225 133.617 8.9282C134.053 9.1355 134.39 9.42919 134.629 9.80925C134.876 10.1807 135 10.6169 135 11.1179V15.8082H133.412V14.6032L133.771 14.5773C133.592 14.8796 133.378 15.1344 133.131 15.3417C132.883 15.5404 132.602 15.6959 132.286 15.8082C131.97 15.9118 131.62 15.9637 131.236 15.9637Z" fill="#024088"/>
<path d="M59.781 29.8445V20.1918H61.138L66.387 27.3439L65.6829 27.4864V20.1918H67.424V29.8445H66.0542L60.882 22.6406L61.5221 22.4981V29.8445H59.781Z" fill="#024088"/>
<path d="M71.4851 30C70.9474 30 70.478 29.8791 70.0769 29.6372C69.6842 29.3954 69.3813 29.0585 69.1679 28.6266C68.963 28.1947 68.8606 27.6894 68.8606 27.1107V22.7961H70.5377V26.9681C70.5377 27.2618 70.5932 27.521 70.7042 27.7455C70.8237 27.9615 70.9901 28.1342 71.2035 28.2638C71.4254 28.3847 71.6729 28.4452 71.946 28.4452C72.2191 28.4452 72.4624 28.3847 72.6758 28.2638C72.8891 28.1342 73.0556 27.9572 73.1751 27.7326C73.2946 27.508 73.3543 27.2402 73.3543 26.9293V22.7961H75.0314V29.8445H73.4439V28.4582L73.5847 28.7043C73.4226 29.1362 73.1537 29.4601 72.7782 29.6761C72.4112 29.892 71.9802 30 71.4851 30Z" fill="#024088"/>
<path d="M79.1125 30C78.37 30 77.7213 29.8229 77.1665 29.4688C76.6203 29.106 76.2448 28.618 76.0399 28.0047L77.2946 27.3957C77.4738 27.7931 77.7213 28.104 78.0371 28.3286C78.3614 28.5532 78.7199 28.6655 79.1125 28.6655C79.4198 28.6655 79.663 28.5964 79.8423 28.4582C80.0215 28.32 80.1111 28.1386 80.1111 27.914C80.1111 27.7758 80.0727 27.6635 79.9959 27.5771C79.9276 27.4821 79.8295 27.4044 79.7014 27.3439C79.5819 27.2748 79.4496 27.2186 79.3046 27.1755L78.1651 26.8515C77.5762 26.6788 77.1281 26.4153 76.8209 26.0612C76.5221 25.707 76.3728 25.2881 76.3728 24.8044C76.3728 24.3725 76.4795 23.9968 76.6928 23.6772C76.9148 23.3489 77.2177 23.0941 77.6018 22.9127C77.9944 22.7313 78.4425 22.6406 78.9461 22.6406C79.6033 22.6406 80.1837 22.8004 80.6872 23.12C81.1908 23.4396 81.5493 23.8888 81.7626 24.4675L80.4824 25.0765C80.3629 24.7569 80.1623 24.5021 79.8807 24.312C79.599 24.122 79.2832 24.027 78.9333 24.027C78.6516 24.027 78.4297 24.0918 78.2676 24.2213C78.1054 24.3509 78.0243 24.5193 78.0243 24.7267C78.0243 24.8562 78.0584 24.9685 78.1267 25.0635C78.195 25.1585 78.2889 25.2363 78.4084 25.2967C78.5364 25.3572 78.6815 25.4134 78.8437 25.4652L79.9575 25.8021C80.5293 25.9748 80.9689 26.2339 81.2761 26.5794C81.5919 26.925 81.7498 27.3482 81.7498 27.8492C81.7498 28.2725 81.6389 28.6482 81.417 28.9764C81.1951 29.296 80.8878 29.5465 80.4952 29.7279C80.1026 29.9093 79.6417 30 79.1125 30Z" fill="#024088"/>
<path d="M85.0231 30C84.5366 30 84.1141 29.9179 83.7556 29.7538C83.3971 29.5897 83.1198 29.3565 82.9235 29.0542C82.7272 28.7432 82.629 28.3847 82.629 27.9788C82.629 27.5901 82.7143 27.2446 82.885 26.9422C83.0557 26.6313 83.3203 26.3721 83.6788 26.1648C84.0373 25.9575 84.4896 25.8107 85.0359 25.7243L87.3147 25.3486V26.6442L85.3559 26.9811C85.0231 27.0416 84.7756 27.1495 84.6134 27.305C84.4512 27.4605 84.3701 27.6635 84.3701 27.914C84.3701 28.1558 84.4598 28.3502 84.639 28.497C84.8268 28.6352 85.0572 28.7043 85.3303 28.7043C85.6803 28.7043 85.9875 28.6309 86.2521 28.4841C86.5252 28.3286 86.7343 28.117 86.8794 27.8492C87.0331 27.5814 87.1099 27.2877 87.1099 26.9681V25.1542C87.1099 24.8519 86.9904 24.6014 86.7514 24.4027C86.521 24.1954 86.2137 24.0918 85.8296 24.0918C85.4712 24.0918 85.1511 24.1911 84.8694 24.3898C84.5963 24.5798 84.3957 24.8346 84.2677 25.1542L82.8979 24.4805C83.0344 24.1091 83.2478 23.7895 83.538 23.5217C83.8367 23.2453 84.1866 23.0293 84.5878 22.8739C84.9889 22.7184 85.4242 22.6406 85.8936 22.6406C86.4655 22.6406 86.969 22.7486 87.4043 22.9646C87.8396 23.1719 88.1767 23.4655 88.4157 23.8456C88.6632 24.217 88.787 24.6532 88.787 25.1542V29.8445H87.1995V28.6396L87.558 28.6136C87.3787 28.916 87.1654 29.1708 86.9178 29.3781C86.6703 29.5768 86.3887 29.7322 86.0729 29.8445C85.7571 29.9482 85.4071 30 85.0231 30Z" fill="#024088"/>
<path d="M90.2091 29.8445V22.7961H91.7838V24.1825L91.6558 23.9363C91.8179 23.513 92.0825 23.1935 92.4495 22.9775C92.8251 22.7529 93.2603 22.6406 93.7554 22.6406C94.2675 22.6406 94.7198 22.7529 95.1124 22.9775C95.5136 23.2021 95.8251 23.5174 96.047 23.9233C96.2689 24.3207 96.3799 24.7828 96.3799 25.3097V29.8445H94.7028V25.7114C94.7028 25.4004 94.643 25.1326 94.5235 24.908C94.404 24.6835 94.2376 24.5107 94.0242 24.3898C93.8194 24.2602 93.5761 24.1954 93.2945 24.1954C93.0214 24.1954 92.7781 24.2602 92.5647 24.3898C92.3514 24.5107 92.1849 24.6835 92.0654 24.908C91.9459 25.1326 91.8862 25.4004 91.8862 25.7114V29.8445H90.2091Z" fill="#024088"/>
<path d="M100.845 29.9223C100.06 29.9223 99.4496 29.7063 99.0143 29.2744C98.5875 28.8339 98.3742 28.2163 98.3742 27.4216V24.312H97.1707V22.7961H97.2988C97.6402 22.7961 97.9047 22.7054 98.0925 22.524C98.2803 22.3426 98.3742 22.0792 98.3742 21.7337V21.1895H100.051V22.7961H101.652V24.312H100.051V27.3309C100.051 27.5642 100.09 27.7628 100.167 27.9269C100.252 28.0911 100.38 28.2163 100.551 28.3027C100.73 28.3891 100.956 28.4322 101.229 28.4322C101.289 28.4322 101.357 28.4279 101.434 28.4193C101.519 28.4107 101.6 28.402 101.677 28.3934V29.8445C101.558 29.8618 101.421 29.8791 101.268 29.8963C101.114 29.9136 100.973 29.9223 100.845 29.9223Z" fill="#024088"/>
<path d="M104.918 30C104.431 30 104.009 29.9179 103.65 29.7538C103.292 29.5897 103.015 29.3565 102.818 29.0542C102.622 28.7432 102.524 28.3847 102.524 27.9788C102.524 27.5901 102.609 27.2446 102.78 26.9422C102.951 26.6313 103.215 26.3721 103.574 26.1648C103.932 25.9575 104.385 25.8107 104.931 25.7243L107.21 25.3486V26.6442L105.251 26.9811C104.918 27.0416 104.67 27.1495 104.508 27.305C104.346 27.4605 104.265 27.6635 104.265 27.914C104.265 28.1558 104.355 28.3502 104.534 28.497C104.722 28.6352 104.952 28.7043 105.225 28.7043C105.575 28.7043 105.882 28.6309 106.147 28.4841C106.42 28.3286 106.629 28.117 106.774 27.8492C106.928 27.5814 107.005 27.2877 107.005 26.9681V25.1542C107.005 24.8519 106.885 24.6014 106.646 24.4027C106.416 24.1954 106.109 24.0918 105.724 24.0918C105.366 24.0918 105.046 24.1911 104.764 24.3898C104.491 24.5798 104.291 24.8346 104.163 25.1542L102.793 24.4805C102.929 24.1091 103.143 23.7895 103.433 23.5217C103.732 23.2453 104.082 23.0293 104.483 22.8739C104.884 22.7184 105.319 22.6406 105.789 22.6406C106.36 22.6406 106.864 22.7486 107.299 22.9646C107.734 23.1719 108.072 23.4655 108.311 23.8456C108.558 24.217 108.682 24.6532 108.682 25.1542V29.8445H107.094V28.6396L107.453 28.6136C107.274 28.916 107.06 29.1708 106.813 29.3781C106.565 29.5768 106.284 29.7322 105.968 29.8445C105.652 29.9482 105.302 30 104.918 30Z" fill="#024088"/>
<path d="M110.104 29.8445V22.7961H111.679V24.3639L111.551 24.1306C111.713 23.6037 111.965 23.2366 112.306 23.0293C112.656 22.822 113.074 22.7184 113.561 22.7184H113.97V24.2213H113.369C112.891 24.2213 112.507 24.3725 112.216 24.6748C111.926 24.9685 111.781 25.3831 111.781 25.9187V29.8445H110.104Z" fill="#024088"/>
<path d="M116.877 30C116.39 30 115.968 29.9179 115.609 29.7538C115.251 29.5897 114.973 29.3565 114.777 29.0542C114.581 28.7432 114.483 28.3847 114.483 27.9788C114.483 27.5901 114.568 27.2446 114.739 26.9422C114.909 26.6313 115.174 26.3721 115.533 26.1648C115.891 25.9575 116.343 25.8107 116.89 25.7243L119.168 25.3486V26.6442L117.21 26.9811C116.877 27.0416 116.629 27.1495 116.467 27.305C116.305 27.4605 116.224 27.6635 116.224 27.914C116.224 28.1558 116.313 28.3502 116.493 28.497C116.68 28.6352 116.911 28.7043 117.184 28.7043C117.534 28.7043 117.841 28.6309 118.106 28.4841C118.379 28.3286 118.588 28.117 118.733 27.8492C118.887 27.5814 118.964 27.2877 118.964 26.9681V25.1542C118.964 24.8519 118.844 24.6014 118.605 24.4027C118.375 24.1954 118.067 24.0918 117.683 24.0918C117.325 24.0918 117.005 24.1911 116.723 24.3898C116.45 24.5798 116.249 24.8346 116.121 25.1542L114.752 24.4805C114.888 24.1091 115.101 23.7895 115.392 23.5217C115.69 23.2453 116.04 23.0293 116.441 22.8739C116.843 22.7184 117.278 22.6406 117.747 22.6406C118.319 22.6406 118.823 22.7486 119.258 22.9646C119.693 23.1719 120.03 23.4655 120.269 23.8456C120.517 24.217 120.641 24.6532 120.641 25.1542V29.8445H119.053V28.6396L119.412 28.6136C119.232 28.916 119.019 29.1708 118.772 29.3781C118.524 29.5768 118.242 29.7322 117.927 29.8445C117.611 29.9482 117.261 30 116.877 30Z" fill="#024088"/>
<path d="M82.5052 16.0414C82.0187 16.0414 81.5962 15.9593 81.2377 15.7952C80.8793 15.6311 80.6019 15.3979 80.4056 15.0956C80.2093 14.7846 80.1111 14.4261 80.1111 14.0202C80.1111 13.6315 80.1965 13.2859 80.3672 12.9836C80.5379 12.6727 80.8024 12.4135 81.1609 12.2062C81.5194 11.9989 81.9717 11.8521 82.518 11.7657L84.7968 11.39V12.6856L82.838 13.0225C82.5052 13.083 82.2577 13.1909 82.0955 13.3464C81.9333 13.5019 81.8523 13.7049 81.8523 13.9554C81.8523 14.1972 81.9419 14.3916 82.1211 14.5384C82.3089 14.6766 82.5393 14.7457 82.8124 14.7457C83.1624 14.7457 83.4696 14.6723 83.7342 14.5255C84.0073 14.37 84.2164 14.1584 84.3615 13.8906C84.5152 13.6228 84.592 13.3291 84.592 13.0095V11.1956C84.592 10.8933 84.4725 10.6428 84.2335 10.4441C84.0031 10.2368 83.6958 10.1332 83.3117 10.1332C82.9533 10.1332 82.6332 10.2325 82.3515 10.4312C82.0784 10.6212 81.8779 10.876 81.7498 11.1956L80.38 10.5219C80.5165 10.1504 80.7299 9.83084 81.0201 9.56307C81.3188 9.28667 81.6687 9.07072 82.0699 8.91524C82.471 8.75976 82.9063 8.68202 83.3757 8.68202C83.9476 8.68202 84.4512 8.78999 84.8864 9.00594C85.3217 9.21324 85.6589 9.50693 85.8978 9.88699C86.1454 10.2584 86.2691 10.6946 86.2691 11.1956V15.8859H84.6816V14.6809L85.0401 14.655C84.8608 14.9574 84.6475 15.2122 84.3999 15.4195C84.1524 15.6181 83.8708 15.7736 83.555 15.8859C83.2392 15.9896 82.8893 16.0414 82.5052 16.0414Z" fill="#024088"/>
</svg>
